<?xml version="1.0" encoding="UTF-8"?>
<svg version="1.1" viewBox="0 0 2048 733" width="1280" height="1280" xmlns="http://www.w3.org/2000/svg">
<path transform="translate(2,2)" d="m0 0h729v729h-728l-1-1z" fill="#F7E82E"/>
<path transform="translate(1716,188)" d="m0 0h90l14 20 11 16 32 46 11 16 14 20 11 16 32 46 11 16 14 20 1 2 1-218h88v360h-97l-12-17-22-32-16-23-13-19-11-16-16-23-13-19-16-23-13-19-12-17v208h-89z" fill="#28A8E0"/>
<path transform="translate(876,188)" d="m0 0h187l19 3 18 6 17 9 14 11 7 7 10 13 6 10 8 19 4 16 2 13v33l-3 19-5 16-7 16-10 15-11 12-10 9-18 11-19 7-14 3-10 1h-97v111h-88zm88 76v97h79l13-4 8-6 7-8 5-10 3-16v-10l-3-16-5-10-9-10-10-5-7-2z" fill="#28A8E0"/>
<path transform="translate(320,99)" d="m0 0h93l-3 9-13 30-15 35-45 104-12 28 11-5 12-4 13-2h21l16 3 20 8 37-15 40-16 3 1-64 160-15 38-42 105-29 73-2 1 5-26 20-101 29-145 1-2-30 13-84 37-41 18-32 14-9 3 3-11 19-60 15-48 24-76 17-54 22-70 14-44z" fill="#E62A2B"/>
<path transform="translate(1306,188)" d="m0 0h88l1 284 172 1v75h-261z" fill="#28A8E0"/>
<path transform="translate(209,476)" d="m0 0h19l14 2 15 5 22 10 4 1h15l21-7 20-7 13-3 8-1h19l2 1-2 13-6 31-1 2-23 3-15 5-20 9-9 3-6 1h-19l-12-3-16-8-11-5-14-4h-22l-19 4-16 6-16 8-5 2v-49l14-7 24-8 13-3z" fill="#28A8E0"/>
<path transform="translate(359,247)" d="m0 0h21l19 4 31 11 14 3h18l13-4 13-8 10-4 12-2h23l19 3 17 6 12 7 3 3v48l-4-2-16-9-18-6-13-2h-18l-15 4-15 8 3-10 9-22-10 3-27 11-42 17-20-8-16-3h-21l-17 3-15 6-4 1 3-9 15-35 5-12z" fill="#28A8E0"/>
<path transform="translate(511,476)" d="m0 0h21l19 3 18 6 13 8 2 2v49l-11-7-17-8-16-4-8-1h-16l-13 3-12 6-10 6-11 4-6 1h-21l-13-3-29-13-4-2 10-26 6-14 11 3 13 4 6 1h20l12-4 15-9 13-4z" fill="#28A8E0"/>
<path transform="translate(506,362)" d="m0 0h31l20 4 15 6 11 7 1 1v49l-12-7-12-6-17-5-6-1h-25l-15 5-16 9-10 4-13 2h-9l-12-2 1-5 16-40 1-2 14-3 12-6 10-6z" fill="#28A8E0"/>
<path transform="translate(208,247)" d="m0 0h21l17 3 16 6 7 4-3 11-10 32-2 2-15-7-11-3h-24l-18 4-17 6-18 9h-2v-48l16-8 21-7z" fill="#28A8E0"/>
<path transform="translate(204,362)" d="m0 0h29l3 1-2 10-11 34-1 1-21 2-17 4-20 8-13 7h-2v-48l6-4 20-8 18-5z" fill="#28A8E0"/>
<path transform="translate(361,294)" d="m0 0h21l16 3 15 6 4 3-26 11-72 29-12 5h-2l3-9 16-37 20-8z" fill="#F7E82F"/>
<path transform="translate(398,378)" d="m0 0h3l-5 27-2 6-8-1h-29l-17 4-16 7-14 6-17 3h-7l-2-2 30-13 43-19 32-14z" fill="#28A8E0"/>
</svg>
